<svg width="19" height="22" viewBox="0 0 19 22" fill="none" xmlns="http://www.w3.org/2000/svg">
<path d="M0.28125 16.3203C0.28125 15.3438 1.26758 14.4648 2.11719 13.5957C2.76172 12.9219 2.9375 11.5352 3.01562 10.4121C3.08398 6.56445 4.08008 4.08398 6.67773 3.14648C7 1.86719 8.05469 0.861328 9.49023 0.861328C10.9355 0.861328 11.9805 1.86719 12.3125 3.14648C14.9102 4.08398 15.9062 6.56445 15.9746 10.4121C16.0527 11.5352 16.2285 12.9219 16.873 13.5957C17.7129 14.4648 18.709 15.3438 18.709 16.3203C18.709 17.0332 18.1523 17.502 17.2344 17.502H13.1133C13.0352 19.3965 11.5605 21.0371 9.49023 21.0371C7.42969 21.0371 5.95508 19.3867 5.87695 17.502H1.75586C0.828125 17.502 0.28125 17.0332 0.28125 16.3203ZM2.17578 16.0273H16.8047V15.9102C16.6289 15.627 16.0527 15.0508 15.5352 14.4844C14.8418 13.7031 14.5098 12.4434 14.4219 10.5391C14.3438 6.27148 13.0742 4.91406 11.3945 4.45508C11.1504 4.39648 11.0234 4.2793 11.0137 4.02539C10.9746 3.00977 10.3984 2.29688 9.49023 2.29688C8.5918 2.29688 8.00586 3.00977 7.97656 4.02539C7.9668 4.2793 7.83008 4.39648 7.58594 4.45508C5.91602 4.91406 4.64648 6.27148 4.56836 10.5391C4.48047 12.4434 4.14844 13.7031 3.44531 14.4844C2.9375 15.0508 2.35156 15.627 2.17578 15.9102V16.0273ZM7.40039 17.502C7.46875 18.8301 8.31836 19.6602 9.49023 19.6602C10.6719 19.6602 11.5117 18.8301 11.5898 17.502H7.40039Z" fill="black"/>
</svg>
