<svg width="18" height="18" viewBox="0 0 18 18" fill="none" xmlns="http://www.w3.org/2000/svg">
<path d="M6.94922 17.5723C6.5293 17.5723 6.22656 17.3867 5.93359 17.0059L0.865234 10.5508C0.679688 10.3164 0.582031 10.0625 0.582031 9.83789C0.582031 9.30078 0.962891 8.91992 1.51953 8.91992C1.87109 8.91992 2.11523 9.05664 2.35938 9.39844L6.91016 15.3555L15.6797 1.38086C15.9141 1.00977 16.1289 0.882812 16.5195 0.882812C17.0566 0.882812 17.4082 1.23438 17.4082 1.77148C17.4082 1.99609 17.3398 2.21094 17.1641 2.49414L7.93555 17.0254C7.70117 17.3867 7.36914 17.5723 6.94922 17.5723Z" fill="black"/>
</svg>
