<svg width="36" height="16" viewBox="0 0 36 16" fill="none" xmlns="http://www.w3.org/2000/svg">
<path d="M7.46484 15C7.46484 14.8933 7.46484 14.7933 7.46484 14.7C7.46484 14.5933 7.46484 14.4933 7.46484 14.4C7.13151 14.68 6.75151 14.8933 6.32484 15.04C5.91151 15.2 5.46484 15.28 4.98484 15.28C4.30484 15.28 3.66484 15.1467 3.06484 14.88C2.46484 14.6133 1.93151 14.24 1.46484 13.76C1.01151 13.2667 0.65151 12.6867 0.384844 12.02C0.13151 11.3533 0.00484376 10.62 0.00484376 9.82C0.00484376 9.00667 0.13151 8.26667 0.384844 7.6C0.65151 6.93333 1.01151 6.36 1.46484 5.88C1.93151 5.4 2.46484 5.03333 3.06484 4.78C3.66484 4.51333 4.29818 4.38 4.96484 4.38C5.44484 4.38 5.89818 4.46 6.32484 4.62C6.75151 4.76667 7.13151 4.97333 7.46484 5.24C7.46484 4.44 7.46484 3.63333 7.46484 2.82C7.46484 2.00667 7.46484 1.2 7.46484 0.4C8.01151 0.4 8.56484 0.4 9.12484 0.4C9.68484 0.4 10.2315 0.4 10.7648 0.4C10.7648 2.81333 10.7648 5.24667 10.7648 7.7C10.7648 10.1533 10.7648 12.5867 10.7648 15C10.2315 15 9.68484 15 9.12484 15C8.56484 15 8.01151 15 7.46484 15ZM5.42484 12.36C6.06484 12.36 6.57818 12.1267 6.96484 11.66C7.35151 11.1933 7.54484 10.58 7.54484 9.82C7.54484 9.06 7.35151 8.45333 6.96484 8C6.57818 7.53333 6.06484 7.3 5.42484 7.3C4.77151 7.3 4.25151 7.52667 3.86484 7.98C3.49151 8.43333 3.30484 9.04667 3.30484 9.82C3.30484 10.5933 3.49151 11.2133 3.86484 11.68C4.25151 12.1333 4.77151 12.36 5.42484 12.36ZM17.9648 15.32C17.1915 15.32 16.4715 15.1867 15.8048 14.92C15.1382 14.64 14.5582 14.2533 14.0648 13.76C13.5715 13.2533 13.1848 12.6667 12.9048 12C12.6382 11.3333 12.5048 10.6067 12.5048 9.82C12.5048 9.03333 12.6382 8.30667 12.9048 7.64C13.1848 6.97333 13.5715 6.39333 14.0648 5.9C14.5582 5.40667 15.1382 5.02667 15.8048 4.76C16.4715 4.48 17.1915 4.34 17.9648 4.34C18.7515 4.34 19.4715 4.48 20.1248 4.76C20.7915 5.02667 21.3715 5.40667 21.8648 5.9C22.3582 6.39333 22.7382 6.97333 23.0048 7.64C23.2848 8.30667 23.4248 9.03333 23.4248 9.82C23.4248 10.6067 23.2848 11.3333 23.0048 12C22.7382 12.6667 22.3582 13.2533 21.8648 13.76C21.3715 14.2533 20.7915 14.64 20.1248 14.92C19.4715 15.1867 18.7515 15.32 17.9648 15.32ZM17.9648 12.34C18.6182 12.34 19.1382 12.1067 19.5248 11.64C19.9248 11.16 20.1248 10.5533 20.1248 9.82C20.1248 9.07333 19.9248 8.47333 19.5248 8.02C19.1382 7.55333 18.6182 7.32 17.9648 7.32C17.3115 7.32 16.7848 7.55333 16.3848 8.02C15.9982 8.47333 15.8048 9.07333 15.8048 9.82C15.8048 10.5533 15.9982 11.16 16.3848 11.64C16.7848 12.1067 17.3115 12.34 17.9648 12.34ZM26.0394 15C26.0394 13.7733 26.0394 12.54 26.0394 11.3C26.0394 10.06 26.0394 8.83333 26.0394 7.62C25.7727 7.62 25.4994 7.62 25.2194 7.62C24.9527 7.62 24.686 7.62 24.4194 7.62C24.4194 7.12667 24.4194 6.63333 24.4194 6.14C24.4194 5.64667 24.4194 5.15333 24.4194 4.66C24.686 4.66 24.9527 4.66 25.2194 4.66C25.4994 4.66 25.7727 4.66 26.0394 4.66C26.0394 4.19333 26.0394 3.73333 26.0394 3.28C26.0394 2.81333 26.0394 2.35333 26.0394 1.9C26.586 1.9 27.1394 1.9 27.6994 1.9C28.2594 1.9 28.806 1.9 29.3394 1.9C29.3394 2.35333 29.3394 2.81333 29.3394 3.28C29.3394 3.73333 29.3394 4.19333 29.3394 4.66C29.646 4.66 29.9594 4.66 30.2794 4.66C30.5994 4.66 30.9127 4.66 31.2194 4.66C31.2194 5.15333 31.2194 5.64667 31.2194 6.14C31.2194 6.63333 31.2194 7.12667 31.2194 7.62C30.9127 7.62 30.5994 7.62 30.2794 7.62C29.9594 7.62 29.646 7.62 29.3394 7.62C29.3394 8.83333 29.3394 10.06 29.3394 11.3C29.3394 12.54 29.3394 13.7733 29.3394 15C28.806 15 28.2594 15 27.6994 15C27.1394 15 26.586 15 26.0394 15ZM33.6348 15.32C33.2482 15.32 32.8882 15.2267 32.5548 15.04C32.2348 14.8533 31.9815 14.6 31.7948 14.28C31.6082 13.96 31.5148 13.6133 31.5148 13.24C31.5148 12.8667 31.6082 12.5267 31.7948 12.22C31.9815 11.9 32.2348 11.6467 32.5548 11.46C32.8882 11.2733 33.2482 11.18 33.6348 11.18C34.0215 11.18 34.3682 11.2733 34.6748 11.46C34.9948 11.6467 35.2482 11.9 35.4348 12.22C35.6348 12.5267 35.7348 12.8667 35.7348 13.24C35.7348 13.6133 35.6348 13.96 35.4348 14.28C35.2482 14.6 34.9948 14.8533 34.6748 15.04C34.3682 15.2267 34.0215 15.32 33.6348 15.32Z" fill="black"/>
</svg>
