<svg width="17" height="14" viewBox="0 0 17 14" fill="none" xmlns="http://www.w3.org/2000/svg">
<path d="M4.25488 13.2988C2.16992 13.2988 0.508789 10.7695 0.508789 7.06445C0.508789 3.35254 2.16992 0.836914 4.25488 0.836914C6.33301 0.836914 7.99414 3.35254 7.99414 7.06445C7.99414 10.7695 6.33301 13.2988 4.25488 13.2988ZM12.7451 13.2988C10.667 13.2988 9.00586 10.7695 9.00586 7.06445C9.00586 3.35254 10.667 0.836914 12.7451 0.836914C14.8301 0.836914 16.4912 3.35254 16.4912 7.06445C16.4912 10.7695 14.8301 13.2988 12.7451 13.2988ZM2.77832 9.47754C2.36133 9.47754 1.99902 9.375 1.70508 9.18359C2.12891 11.125 3.12695 12.335 4.25488 12.335C5.76562 12.3213 7.03027 10.1748 7.03027 7.06445C7.03027 3.93359 5.76562 1.79395 4.25488 1.80078C2.94922 1.81445 1.82129 3.43457 1.55469 5.90234C1.86914 5.64258 2.28613 5.49902 2.77832 5.49902C3.91992 5.49902 4.67871 6.29883 4.67871 7.48145C4.67871 8.68457 3.91992 9.47754 2.77832 9.47754ZM11.2617 9.47754C10.8516 9.47754 10.4824 9.36816 10.1885 9.18359C10.6123 11.1113 11.6104 12.3281 12.7451 12.3281C14.2422 12.3213 15.5137 10.1816 15.5137 7.06445C15.5137 3.94727 14.2422 1.80762 12.7451 1.80762C11.4326 1.81445 10.3047 3.43457 10.0312 5.90234C10.3525 5.64258 10.7764 5.49902 11.2617 5.49902C12.4033 5.49902 13.1758 6.29883 13.1758 7.48145C13.1758 8.68457 12.4033 9.47754 11.2617 9.47754ZM2.23828 7.24902C2.47754 7.29004 2.70312 7.07812 2.75781 6.77734C2.81934 6.4834 2.66895 6.20312 2.42285 6.15527C2.19043 6.10742 1.95801 6.32617 1.89648 6.62012C1.8418 6.9209 1.99219 7.21484 2.23828 7.24902ZM10.7217 7.24902C10.9609 7.29004 11.1865 7.07812 11.2412 6.77734C11.3027 6.4834 11.1592 6.19629 10.9131 6.15527C10.6738 6.10742 10.4482 6.32617 10.3867 6.62012C10.3252 6.9209 10.4824 7.20801 10.7217 7.24902Z" fill="#7A7A7A"/>
</svg>
