<svg width="14" height="13" viewBox="0 0 14 13" fill="none" xmlns="http://www.w3.org/2000/svg">
<path d="M0.211914 4.12988C0.211914 1.70996 1.87305 0.000976562 4.08789 0.000976562C5.35254 0.000976562 6.3916 0.609375 7 1.52539C7.62207 0.602539 8.64746 0.000976562 9.91211 0.000976562C12.127 0.000976562 13.7881 1.70996 13.7881 4.12988C13.7881 7.04199 11.3477 9.90625 7.49902 12.3672C7.34863 12.4561 7.14355 12.5518 7 12.5518C6.85645 12.5518 6.65137 12.4561 6.50781 12.3672C2.65234 9.90625 0.211914 7.04199 0.211914 4.12988ZM1.3125 4.12988C1.3125 6.67285 3.99902 9.41406 6.86328 11.3145C6.9248 11.3623 6.97266 11.3965 7 11.3965C7.02734 11.3965 7.0752 11.3623 7.14355 11.3145C10.001 9.41406 12.6875 6.67285 12.6875 4.12988C12.6875 2.31152 11.5117 1.10156 9.92578 1.10156C8.64746 1.10156 7.93652 1.91504 7.46484 2.58496C7.2666 2.85156 7.16406 2.93359 7 2.93359C6.83594 2.93359 6.71973 2.8584 6.53516 2.58496C6.09766 1.90137 5.35938 1.10156 4.07422 1.10156C2.48828 1.10156 1.3125 2.31152 1.3125 4.12988Z" fill="#7A7A7A"/>
</svg>
