<svg width="20" height="20" viewBox="0 0 20 20" fill="none" xmlns="http://www.w3.org/2000/svg">
<path d="M0.458984 8.11328C0.458984 3.81641 3.95508 0.320312 8.25195 0.320312C12.5488 0.320312 16.0449 3.81641 16.0449 8.11328C16.0449 9.89062 15.4492 11.5215 14.4434 12.8301L19.2188 17.6348C19.4238 17.8398 19.541 18.123 19.541 18.4355C19.541 19.0898 19.082 19.5879 18.418 19.5879C18.1055 19.5879 17.8125 19.4805 17.5879 19.2559L12.7832 14.4414C11.5039 15.3594 9.95117 15.9062 8.25195 15.9062C3.95508 15.9062 0.458984 12.4102 0.458984 8.11328ZM2.12891 8.11328C2.12891 11.4922 4.87305 14.2363 8.25195 14.2363C11.6309 14.2363 14.375 11.4922 14.375 8.11328C14.375 4.73438 11.6309 1.99023 8.25195 1.99023C4.87305 1.99023 2.12891 4.73438 2.12891 8.11328Z" fill="black"/>
</svg>
