<svg width="16" height="16" viewBox="0 0 16 16" fill="none" xmlns="http://www.w3.org/2000/svg">
<path d="M3.21484 15.2285C2.51074 15.2285 2.29199 14.6338 2.6543 14.1553C2.96191 13.752 3.53613 12.9453 3.84375 12.3506C1.68359 11.3525 0.248047 9.36328 0.248047 7.12109C0.248047 3.68262 3.69336 0.907227 8 0.907227C12.3066 0.907227 15.752 3.68262 15.752 7.12109C15.752 10.7031 12.1768 13.4375 7.41211 13.3076C6.02441 14.2988 4.1377 15.2285 3.21484 15.2285ZM3.93262 14.0938C4.55469 13.8408 5.77148 13.0889 6.6123 12.4805C6.87207 12.2754 7.09082 12.1865 7.37793 12.1865C7.65137 12.1934 7.86328 12.2002 8 12.2002C11.6914 12.2002 14.624 9.91699 14.624 7.12109C14.624 4.31836 11.6914 2.03516 8 2.03516C4.31543 2.03516 1.38281 4.31836 1.38281 7.12109C1.38281 8.93945 2.61328 10.5322 4.75977 11.5303C5.19727 11.7354 5.24512 12.0498 5.05371 12.4053C4.82129 12.8428 4.27441 13.5537 3.8916 14.0254C3.85742 14.0732 3.87793 14.1143 3.93262 14.0938Z" fill="#7A7A7A"/>
</svg>
