<svg width="24" height="24" viewBox="0 0 24 24" fill="none" xmlns="http://www.w3.org/2000/svg">
<circle cx="12" cy="12" r="12" fill="white"/>
<path d="M8.01387 19.5713C8.01387 17.3313 8.01387 15.0646 8.01387 12.7713C8.01387 10.478 8.01387 8.21129 8.01387 5.97129C8.84053 5.97129 9.6672 5.97129 10.4939 5.97129C11.3339 5.97129 12.1605 5.97129 12.9739 5.97129C14.0005 5.97129 14.8939 6.17129 15.6539 6.57129C16.4139 6.95795 17.0072 7.50462 17.4339 8.21129C17.8605 8.91796 18.0739 9.74462 18.0739 10.6913C18.0739 11.6246 17.8605 12.4446 17.4339 13.1513C17.0205 13.858 16.4472 14.4046 15.7139 14.7913C14.9939 15.178 14.1739 15.3713 13.2539 15.3713C12.9605 15.3713 12.6672 15.3713 12.3739 15.3713C12.0939 15.3713 11.8072 15.3713 11.5139 15.3713C11.5139 16.0646 11.5139 16.7646 11.5139 17.4713C11.5139 18.178 11.5139 18.878 11.5139 19.5713C10.9405 19.5713 10.3605 19.5713 9.77387 19.5713C9.1872 19.5713 8.60053 19.5713 8.01387 19.5713ZM12.9739 9.11129C12.7339 9.11129 12.4872 9.11129 12.2339 9.11129C11.9939 9.11129 11.7539 9.11129 11.5139 9.11129C11.5139 9.64462 11.5139 10.1846 11.5139 10.7313C11.5139 11.2646 11.5139 11.798 11.5139 12.3313C11.7805 12.3313 12.0539 12.3313 12.3339 12.3313C12.6272 12.3313 12.9072 12.3313 13.1739 12.3313C13.5872 12.3313 13.9205 12.178 14.1739 11.8713C14.4405 11.5646 14.5739 11.1846 14.5739 10.7313C14.5739 10.2646 14.4339 9.87796 14.1539 9.57129C13.8739 9.26462 13.4805 9.11129 12.9739 9.11129Z" fill="black"/>
</svg>
