<svg width="16" height="16" viewBox="0 0 16 16" fill="none" xmlns="http://www.w3.org/2000/svg">
<path d="M4.10156 8.29688C1.92188 8.29688 0.132812 6.50781 0.132812 4.32031C0.132812 2.14844 1.92188 0.351562 4.10156 0.351562C6.27344 0.351562 8.07031 2.14844 8.07031 4.32031C8.07031 6.49219 6.25 8.29688 4.10156 8.29688ZM15.2656 2.78906H9.92188C9.59375 2.78906 9.33594 2.53125 9.33594 2.19531C9.33594 1.86719 9.59375 1.60938 9.92188 1.60938H15.2656C15.5938 1.60938 15.8672 1.86719 15.8672 2.19531C15.8672 2.53125 15.5938 2.78906 15.2656 2.78906ZM3.625 6.46094C3.79688 6.46094 3.95312 6.39062 4.03906 6.28125L6.30469 3.125C6.375 3.02344 6.41406 2.92188 6.41406 2.83594C6.41406 2.55469 6.1875 2.35156 5.92188 2.35156C5.75 2.35156 5.60156 2.4375 5.50781 2.5625L3.60938 5.21094L2.64844 4.17188C2.5625 4.07812 2.4375 4 2.27344 4C2 4 1.78906 4.21094 1.78906 4.49219C1.78906 4.60156 1.82031 4.75 1.91406 4.84375L3.23438 6.29688C3.33594 6.40625 3.5 6.46094 3.625 6.46094ZM15.2656 6.88281H9.92188C9.59375 6.88281 9.33594 6.625 9.33594 6.28906C9.33594 5.96094 9.59375 5.70312 9.92188 5.70312H15.2656C15.5938 5.70312 15.8672 5.96094 15.8672 6.28906C15.8672 6.625 15.5938 6.88281 15.2656 6.88281ZM15.2656 10.9766H0.710938C0.382812 10.9766 0.125 10.7109 0.125 10.3828C0.125 10.0547 0.382812 9.79688 0.710938 9.79688H15.2656C15.5938 9.79688 15.8672 10.0547 15.8672 10.3828C15.8672 10.7109 15.5938 10.9766 15.2656 10.9766ZM15.2656 15.0625H0.710938C0.382812 15.0625 0.125 14.8047 0.125 14.4766C0.125 14.1484 0.382812 13.8828 0.710938 13.8828H15.2656C15.5938 13.8828 15.8672 14.1484 15.8672 14.4766C15.8672 14.8047 15.5938 15.0625 15.2656 15.0625Z" fill="black"/>
</svg>
