<svg width="15" height="19" viewBox="0 0 15 19" fill="none" xmlns="http://www.w3.org/2000/svg">
<path d="M2.84375 17.4453C1.23438 17.4453 0.421875 16.625 0.421875 14.9922V3.14844C0.421875 1.51562 1.23438 0.695312 2.84375 0.695312H11.1406C12.7578 0.695312 13.5625 1.50781 13.5625 3.14844V11.6016C13.2344 11.1094 12.8047 10.6953 12.3047 10.3828V3.16406C12.3047 2.39062 11.8594 1.95312 11.0781 1.95312H2.90625C2.09375 1.95312 1.67969 2.39844 1.67969 3.16406V14.9766C1.67969 15.75 2.09375 16.1875 2.90625 16.1875H6.53125C6.84375 16.6875 7.25781 17.1172 7.75781 17.4453H2.84375ZM4.03125 5.14062C3.75 5.14062 3.54688 4.92188 3.54688 4.64844C3.54688 4.38281 3.75 4.17969 4.03125 4.17969H9.96094C10.2344 4.17969 10.4375 4.38281 10.4375 4.64844C10.4375 4.92188 10.2344 5.14062 9.96094 5.14062H4.03125ZM4.03125 7.85938C3.75 7.85938 3.54688 7.64844 3.54688 7.375C3.54688 7.10938 3.75 6.89844 4.03125 6.89844H9.96094C10.2344 6.89844 10.4375 7.10938 10.4375 7.375C10.4375 7.64844 10.2344 7.85938 9.96094 7.85938H4.03125ZM10.0391 17.0547C8.30469 17.0547 6.88281 15.6328 6.88281 13.8984C6.88281 12.1719 8.30469 10.7422 10.0391 10.7422C11.7656 10.7422 13.1875 12.1719 13.1875 13.8984C13.1875 14.5391 12.9844 15.1484 12.6484 15.6484L14.5781 17.5859C14.7031 17.7109 14.7891 17.875 14.7891 18.0469C14.7891 18.4375 14.5234 18.7109 14.1641 18.7109C13.9453 18.7109 13.7812 18.6328 13.625 18.4688L11.7031 16.5703C11.2188 16.875 10.6484 17.0547 10.0391 17.0547ZM10.0391 16C11.1875 16 12.1406 15.0469 12.1406 13.8906C12.1406 12.75 11.1875 11.7969 10.0391 11.7969C8.89062 11.7969 7.9375 12.75 7.9375 13.8906C7.9375 15.0469 8.89062 16 10.0391 16Z" fill="black"/>
</svg>
